HIERARCHY
ROOT Hips
{
	OFFSET 0.000000 0.000000 0.000000
	CHANNELS 6 Xposition Yposition Zposition Yrotation Xrotation Zrotation
	JOINT Chest
	{
		OFFSET 0.000000 -0.009281 11.569106
		CHANNELS 3 Yrotation Xrotation Zrotation
		JOINT Chest2
		{
			OFFSET -0.000000 0.016865 9.269641
			CHANNELS 3 Yrotation Xrotation Zrotation
			JOINT Chest3
			{
				OFFSET -0.000000 0.000001 8.374491
				CHANNELS 3 Yrotation Xrotation Zrotation
				JOINT Chest4
				{
					OFFSET -0.000000 0.000001 8.374493
					CHANNELS 3 Yrotation Xrotation Zrotation
					JOINT Neck
					{
						OFFSET -0.000000 0.000002 12.152554
						CHANNELS 3 Yrotation Xrotation Zrotation
						JOINT Head
						{
							OFFSET -0.000000 0.040101 7.802319
							CHANNELS 3 Yrotation Xrotation Zrotation
							End Site
							{
								OFFSET -0.000000 0.020947 14.853096
							}
						}
					}
					JOINT RightCollar
					{
						OFFSET 2.894404 0.000001 6.791374
						CHANNELS 3 Yrotation Xrotation Zrotation
						JOINT RightShoulder
						{
							OFFSET 13.574684 0.000001 0.000000
							CHANNELS 3 Yrotation Xrotation Zrotation
							JOINT RightElbow
							{
								OFFSET 23.923903 0.000002 0.000000
								CHANNELS 3 Yrotation Xrotation Zrotation
								JOINT RightWrist
								{
									OFFSET 19.846718 0.012767 0.000000
									CHANNELS 3 Yrotation Xrotation Zrotation
									End Site
									{
										OFFSET 14.973145 0.000001 0.000000
									}
								}
							}
						}
					}
					JOINT LeftCollar
					{
						OFFSET -2.894404 0.000001 6.791374
						CHANNELS 3 Yrotation Xrotation Zrotation
						JOINT LeftShoulder
						{
							OFFSET -13.574684 -0.000001 0.000000
							CHANNELS 3 Yrotation Xrotation Zrotation
							JOINT LeftElbow
							{
								OFFSET -23.923903 -0.000002 0.000000
								CHANNELS 3 Yrotation Xrotation Zrotation
								JOINT LeftWrist
								{
									OFFSET -19.846718 0.012763 0.000000
									CHANNELS 3 Yrotation Xrotation Zrotation
									End Site
									{
										OFFSET -14.973145 -0.000001 0.000000
									}
								}
							}
						}
					}
				}
			}
		}
	}
	JOINT RightHip
	{
		OFFSET 9.469263 0.004643 0.045487
		CHANNELS 3 Yrotation Xrotation Zrotation
		JOINT RightKnee
		{
			OFFSET 0.000000 0.002661 -40.478676
			CHANNELS 3 Yrotation Xrotation Zrotation
			JOINT RightAnkle
			{
				OFFSET 0.000000 0.049106 -35.224068
				CHANNELS 3 Yrotation Xrotation Zrotation
				JOINT RightToe
				{
					OFFSET -0.000001 12.539529 -6.151390
					CHANNELS 3 Yrotation Xrotation Zrotation
					End Site
					{
						OFFSET -0.000001 5.044994 -1.291870
					}
				}
			}
		}
	}
	JOINT LeftHip
	{
		OFFSET -9.469263 0.004641 0.045487
		CHANNELS 3 Yrotation Xrotation Zrotation
		JOINT LeftKnee
		{
			OFFSET 0.000000 0.002661 -40.478676
			CHANNELS 3 Yrotation Xrotation Zrotation
			JOINT LeftAnkle
			{
				OFFSET 0.000000 0.049106 -35.224068
				CHANNELS 3 Yrotation Xrotation Zrotation
				JOINT LeftToe
				{
					OFFSET -0.000001 12.539529 -6.151390
					CHANNELS 3 Yrotation Xrotation Zrotation
					End Site
					{
						OFFSET -0.000001 5.044994 -1.291870
					}
				}
			}
		}
	}
}
MOTION
Frames: 8
Frame Time: 0.016667
11.986665 5.602205 83.006660 -5.873970 -1.415178 -104.624073 -1.040688 -5.646598 1.348173 -0.440599 -2.520386 0.565731 -0.440599 -2.520387 0.565729 -0.328062 -1.890701 0.422411 0.923182 -21.738523 -0.630062 1.492420 -4.183832 -0.878797 -0.703764 -3.401713 6.248045 39.039350 -15.189975 13.664018 -22.270149 -68.279263 25.784912 19.686571 -29.884448 -26.853573 1.919381 -10.965269 -9.428006 -36.607119 -17.336372 -20.262759 3.671109 -42.002235 -4.378688 -39.413760 -51.112792 49.443446 -0.563768 -8.597038 -3.224447 2.748232 -3.631811 -8.753761 -1.965175 5.731145 0.063247 -0.106391 -0.034403 -0.006660 -0.199935 -9.165886 0.592264 0.598074 -1.560367 -1.294896 -0.602596 4.685346 1.035405 0.159139 0.058014 0.004968 
12.040836 5.580693 83.006386 -5.633589 -1.354611 -104.657985 -1.097887 -5.601031 1.399813 -0.464624 -2.501400 0.588363 -0.464625 -2.501401 0.588364 -0.346004 -1.876501 0.439300 0.966506 -21.673198 -0.647388 1.565816 -4.062434 -0.897347 -0.579741 -3.365065 5.977486 39.423900 -15.364606 12.835911 -23.973431 -68.556480 28.687976 19.997523 -29.868848 -27.111357 1.908167 -10.902822 -9.559785 -37.115617 -17.419062 -19.266355 3.501492 -43.102971 -5.979289 -39.754740 -50.891487 49.779925 -0.532953 -8.511272 -3.130157 2.704036 -3.365230 -8.850939 -1.923498 5.641212 0.102512 -0.108271 -0.036335 -0.005074 -0.195168 -9.055724 0.653623 0.601556 -1.364067 -1.308453 -0.653191 4.610423 1.013322 0.156847 0.052533 0.005584 
12.085710 5.559678 83.006966 -5.389800 -1.293030 -104.700612 -1.142158 -5.512244 1.463978 -0.483695 -2.464951 0.614908 -0.483696 -2.464952 0.614910 -0.360235 -1.849204 0.459159 1.004710 -21.638536 -0.681922 1.625099 -3.997850 -0.948720 -0.422034 -3.356173 5.747250 39.838851 -15.481739 11.911153 -25.938962 -68.766078 31.755472 20.299095 -29.906649 -27.314345 1.845411 -10.714899 -9.627805 -37.597418 -17.492509 -18.196034 3.508709 -44.476590 -7.833267 -39.972080 -50.899816 49.843657 -0.501409 -8.392387 -2.990659 2.657516 -3.139275 -8.966656 -1.879848 5.557689 0.120441 -0.110944 -0.032766 -0.002054 -0.194537 -8.926907 0.724313 0.612848 -1.186280 -1.328711 -0.704795 4.536248 1.004125 0.152212 0.050128 0.005589 
12.124721 5.538144 83.008018 -5.171780 -1.240608 -104.750001 -1.155440 -5.430859 1.498882 -0.489229 -2.430619 0.629291 -0.489229 -2.430620 0.629290 -0.364362 -1.823472 0.469952 1.005140 -21.618527 -0.700634 1.620514 -3.960548 -0.982312 -0.277451 -3.374922 5.706180 40.288390 -15.339918 10.888676 -27.756354 -68.983046 34.668343 20.660781 -29.876709 -27.550114 1.750098 -10.526497 -9.598125 -38.154707 -17.813190 -17.225824 3.459204 -45.367752 -9.406329 -40.313778 -50.857886 50.091993 -0.469764 -8.285562 -2.854384 2.614108 -2.938020 -9.082382 -1.832181 5.483422 0.146783 -0.117225 -0.028536 0.001677 -0.192210 -8.814622 0.801449 0.627482 -1.025916 -1.356417 -0.752774 4.468549 0.990571 0.143256 0.048391 0.005439 
12.162473 5.517486 83.007195 -4.982519 -1.195863 -104.808338 -1.160218 -5.374484 1.516254 -0.490209 -2.405339 0.638072 -0.490209 -2.405339 0.638072 -0.365091 -1.804520 0.476554 0.988761 -21.608524 -0.705672 1.589394 -3.941929 -0.996024 -0.187138 -3.353970 5.707583 40.642122 -15.071569 9.881714 -29.420838 -69.229855 37.720686 21.115941 -29.732032 -27.819436 1.675809 -10.446594 -9.578747 -38.754053 -18.115007 -16.353717 3.258495 -45.994979 -10.703939 -40.729118 -50.334792 50.431125 -0.445736 -8.207679 -2.769092 2.578156 -2.741089 -9.171537 -1.779217 5.418281 0.210095 -0.127408 -0.030135 0.003076 -0.193932 -8.725660 0.867448 0.642641 -0.878901 -1.372500 -0.791929 4.411604 0.994798 0.131228 0.043916 0.004575 
12.202918 5.498977 83.003189 -4.817642 -1.152803 -104.868245 -1.174155 -5.349098 1.530801 -0.495668 -2.391511 0.647331 -0.495668 -2.391510 0.647333 -0.369163 -1.794161 0.483490 0.974946 -21.590949 -0.703149 1.565055 -3.909293 -0.995249 -0.125319 -3.254430 5.643458 40.851433 -14.785215 8.895709 -31.341928 -69.393786 41.417560 21.603048 -29.543847 -28.094714 1.619344 -10.446592 -9.622564 -39.181138 -18.168742 -15.496630 2.893140 -46.635449 -12.050905 -41.022126 -49.561663 50.645047 -0.428576 -8.164232 -2.767197 2.538461 -2.532937 -9.186446 -1.723120 5.358047 0.285148 -0.136137 -0.039791 0.002252 -0.199767 -8.656757 0.887683 0.652939 -0.747428 -1.345108 -0.818960 4.371107 0.994179 0.115233 0.035945 0.003399 
12.247203 5.480977 82.997520 -4.662664 -1.109940 -104.918495 -1.202656 -5.332955 1.550166 -0.507294 -2.380040 0.661867 -0.507294 -2.380040 0.661867 -0.377837 -1.785584 0.494352 0.976633 -21.568132 -0.705077 1.567507 -3.866919 -0.998086 -0.087985 -3.166703 5.413094 40.897940 -14.470802 8.033594 -33.710686 -69.444309 45.815761 22.097977 -29.366685 -28.369235 1.580643 -10.473065 -9.705782 -39.590416 -17.925990 -14.550357 2.639039 -47.492751 -13.740091 -41.327217 -48.968468 50.907148 -0.412674 -8.140629 -2.854589 2.495111 -2.319912 -9.132730 -1.662899 5.307728 0.369309 -0.144333 -0.055377 0.000154 -0.210388 -8.586555 0.860130 0.664707 -0.640530 -1.299211 -0.837771 4.343982 1.026375 0.099142 0.029729 0.002651 
12.290361 5.465084 82.992668 -4.500601 -1.064307 -104.958609 -1.234096 -5.311357 1.572023 -0.523795 -2.366941 0.679652 -0.523795 -2.366941 0.679651 -0.390157 -1.775793 0.507636 0.991915 -21.538744 -0.714306 1.592482 -3.812280 -1.010203 -0.060225 -3.042404 4.951238 40.930038 -14.395020 7.360227 -36.118751 -69.286422 50.177029 22.634924 -29.251282 -28.662066 1.453920 -10.300883 -9.741436 -39.749652 -17.555162 -13.445863 2.555673 -48.749703 -16.031098 -41.602870 -48.624284 51.130793 -0.397413 -8.097065 -2.970370 2.446392 -2.124449 -9.060471 -1.597456 5.255216 0.454897 -0.149997 -0.064137 -0.002671 -0.219694 -8.495505 0.833979 0.681194 -0.556870 -1.268002 -0.861005 4.306864 1.035896 0.085981 0.044535 0.000939 
